<?xml version="1.0" encoding="utf-8"?>
<!-- Generator: Adobe Illustrator 21.0.0, SVG Export Plug-In . SVG Version: 6.00 Build 0)  -->
<svg version="1.1" id="Layer_1" xmlns="http://www.w3.org/2000/svg" xmlns:xlink="http://www.w3.org/1999/xlink" x="0px" y="0px"
	 viewBox="0 0 300 100" style="enable-background:new 0 0 300 100;" xml:space="preserve">
<style type="text/css">
	.st0{fill:#363944;}
</style>
<g>
	<path class="st0" d="M49.4,66.8c-1.7-0.1-4-0.2-6.7-0.2c-1.7,0-3.7,0-6,0.1c-0.3,0-0.7,0.1-1.2,0.1c0-1.2,0.1-2.1,0.3-2.6
		c1.5,0,2.6-0.4,3.2-1.2c0.7-0.8,1-2.2,1-4.1v-9.3c0-2.7-0.5-4.6-1.5-5.7c-1-1.1-2.4-1.7-4.2-1.7c-1.1,0-2.2,0.3-3.3,1
		c-1.1,0.7-1.9,1.8-2.6,3.4c-0.7,1.5-1,3.5-1,5.8v6.5c0,2,0.3,3.4,0.9,4.2s1.7,1.1,3.3,1.1c0.2,0.6,0.3,1.5,0.3,2.6
		c-3.4-0.1-5.8-0.2-7.3-0.2c-3.1,0-5.5,0.1-7.3,0.2c0-1.2,0.1-2.1,0.3-2.6c1.6,0,2.7-0.4,3.3-1.1c0.6-0.8,0.9-2.1,0.9-4.2V46.8
		c0-1.1-0.1-1.9-0.3-2.5c-0.2-0.6-0.7-1-1.3-1.3c-0.7-0.3-1.6-0.5-2.9-0.5c0-0.9,0.2-1.7,0.5-2.3c1.3-0.1,2.7-0.3,4.3-0.7
		c1.6-0.4,2.9-0.9,3.8-1.3c0.9,0.3,1.3,1.2,1.3,2.7c0,1.3-0.1,2.5-0.4,3.6c0.1-0.1,0.2-0.3,0.3-0.6c0.1-0.3,0.3-0.6,0.6-0.9
		c0.8-1.1,2-2.2,3.6-3.1c1.6-0.9,3.3-1.3,5.3-1.3c2.6,0,4.7,0.8,6.3,2.4c1.6,1.6,2.4,4.1,2.4,7.6v10.5c0,2,0.3,3.4,0.9,4.2
		c0.6,0.8,1.5,1.1,2.7,1.1C49.3,64.8,49.4,65.7,49.4,66.8z"/>
	<path class="st0" d="M60.5,65.4c-2.1-1.2-3.7-2.9-4.8-5.1c-1.1-2.2-1.7-4.7-1.7-7.6c0-2.7,0.6-5.2,1.8-7.4c1.2-2.2,2.8-4,4.9-5.2
		c2.1-1.3,4.5-1.9,7.1-1.9c4.3,0,7.6,1.3,10.1,4c2.5,2.6,3.7,6.2,3.7,10.6c0,2.8-0.6,5.2-1.7,7.4c-1.2,2.2-2.8,3.9-4.9,5.2
		c-2.1,1.3-4.5,1.9-7.2,1.9C65,67.2,62.6,66.6,60.5,65.4z M73.7,61.3c1.2-2,1.8-4.6,1.8-7.9c0-2.4-0.4-4.6-1.1-6.5
		c-0.8-1.9-1.8-3.3-3-4.3c-1.3-1-2.6-1.5-4.1-1.5c-2.3,0-4,0.9-5.2,2.8c-1.2,1.9-1.8,4.4-1.8,7.5c0,4.1,0.7,7.2,2.2,9.5
		c1.4,2.3,3.4,3.4,5.9,3.4C70.6,64.3,72.4,63.3,73.7,61.3z"/>
	<path class="st0" d="M112.9,61.6c0.5,0.6,1.5,0.9,3.1,0.9c0,1.2-0.1,2.1-0.4,2.8c-1.1,0.1-2.3,0.3-3.6,0.6
		c-1.3,0.3-2.5,0.8-3.4,1.3c-0.5-0.2-0.9-0.6-1.2-1c-0.2-0.4-0.4-1.3-0.4-2.5c0-0.7,0.1-1.4,0.2-2.1c0.1-0.7,0.2-1.2,0.3-1.4
		c-0.4,0.8-0.8,1.6-1.4,2.6c-0.7,1.1-1.7,2.1-3.3,3.1s-3.2,1.4-5.1,1.4c-3.7,0-6.5-1.1-8.5-3.3c-2-2.2-3-5.6-3-10.2
		c0-2.8,0.6-5.5,1.9-7.8c1.3-2.4,3.1-4.2,5.4-5.6c2.3-1.4,5-2.1,7.9-2.1c1.7,0,3.4,0.3,5.1,0.9v-7.4c0-1.1-0.1-1.9-0.3-2.5
		c-0.2-0.6-0.6-1.1-1.3-1.4c-0.7-0.3-1.6-0.5-3-0.5c0-0.9,0.2-1.7,0.5-2.3c1,0,2.5-0.2,4.3-0.7c1.9-0.4,3.2-0.9,3.8-1.4
		c0.9,0.3,1.3,1.1,1.3,2.4v33C112.2,59.9,112.5,61,112.9,61.6z M104.6,60.5c1.4-1.9,2.2-4.8,2.2-8.8v-8.6c-0.8-0.7-1.6-1.2-2.4-1.6
		c-0.8-0.4-1.8-0.5-3-0.5c-1.3,0-2.7,0.3-4,1c-1.3,0.7-2.5,1.9-3.4,3.7c-0.9,1.8-1.4,4.2-1.4,7.2c0,2.4,0.4,4.4,1.1,6
		c0.7,1.6,1.6,2.7,2.7,3.4c1,0.7,2.1,1.1,3.1,1.1C101.4,63.3,103.1,62.4,104.6,60.5z"/>
	<path class="st0" d="M144.2,61.1c0.3,0.4,0.5,0.7,0.5,1c-1.4,1.8-3,3.1-4.7,3.9s-3.8,1.2-6.1,1.2c-2.8,0-5.2-0.6-7.1-1.9
		c-1.9-1.3-3.4-3-4.4-5.2c-1-2.2-1.5-4.7-1.5-7.4c0-2.6,0.5-5.1,1.6-7.3c1-2.2,2.5-4,4.4-5.3c1.9-1.3,4.1-2,6.7-2
		c3.7,0,6.5,1.1,8.3,3.4c1.8,2.3,2.9,5.4,3.1,9.2c-0.2,0.8-0.5,1.5-0.9,2.1c-7.2,0-12.9,0.1-17.1,0.3c0.2,3.1,1,5.7,2.3,7.7
		c1.4,2,3.5,3,6.5,3c1.4,0,2.7-0.3,4-0.9c1.3-0.6,2.4-1.5,3.4-2.6C143.5,60.4,143.9,60.7,144.2,61.1z M128.8,43.1
		c-1.1,1.4-1.8,3.7-2,7h11.7c0-2.7-0.5-4.9-1.5-6.6c-1-1.6-2.4-2.5-4.1-2.5C131.3,41.1,130,41.8,128.8,43.1z"/>
	<path class="st0" d="M168.5,52.7c-5.9,0-11.7,0.1-17.5,0.2c0-0.7,0.1-1.4,0.3-2.2c0.2-0.8,0.4-1.5,0.7-2h17.3
		C169.3,50.3,169,51.6,168.5,52.7z"/>
	<path class="st0" d="M197.3,40.2c-0.3,1.9-0.4,4.3-0.4,7.2c-1.1,0.4-2.3,0.5-3.5,0.5c-0.1-1.8-0.4-3.1-0.9-3.8
		c-0.5-0.7-1.2-1-2.1-1c-0.7,0-1.5,0.4-2.3,1.2c-0.8,0.8-1.5,1.9-2,3.2c-0.5,1.3-0.8,2.8-0.8,4.3v5.9c0,1.8,0.2,3.1,0.5,4
		c0.4,0.9,0.9,1.5,1.7,1.9c0.8,0.3,1.8,0.6,3.2,0.6c0.2,0.6,0.3,1.4,0.3,2.6c-1.9-0.1-4.4-0.2-7.7-0.2c-3.8,0-6.5,0.1-8.1,0.2
		c0-1.2,0.1-2.1,0.3-2.6c1.6-0.1,2.7-0.5,3.3-1.2c0.6-0.7,0.9-2.1,0.9-4.1V46.8c0-1.1-0.1-1.9-0.3-2.5c-0.2-0.6-0.7-1-1.3-1.3
		c-0.7-0.3-1.6-0.5-2.9-0.5c0-0.9,0.2-1.7,0.5-2.3c1.3-0.1,2.7-0.3,4.3-0.7c1.6-0.4,2.9-0.9,3.8-1.3c0.9,0.3,1.3,1.2,1.3,2.7
		c0,1.4-0.1,2.7-0.4,3.9c-0.2,1.2-0.4,1.9-0.4,2.1c0.1-0.2,0.2-0.7,0.5-1.5c0.2-0.7,0.5-1.3,0.8-1.7c2.1-3.3,4.5-4.9,7.4-4.9
		C194.6,38.7,196,39.2,197.3,40.2z"/>
	<path class="st0" d="M224.2,61.1c0.3,0.4,0.5,0.7,0.5,1c-1.4,1.8-3,3.1-4.7,3.9c-1.8,0.8-3.8,1.2-6.1,1.2c-2.8,0-5.2-0.6-7.1-1.9
		c-1.9-1.3-3.4-3-4.4-5.2c-1-2.2-1.5-4.7-1.5-7.4c0-2.6,0.5-5.1,1.6-7.3s2.5-4,4.4-5.3c1.9-1.3,4.1-2,6.7-2c3.7,0,6.5,1.1,8.3,3.4
		c1.8,2.3,2.9,5.4,3.1,9.2c-0.2,0.8-0.5,1.5-0.9,2.1c-7.2,0-12.9,0.1-17.1,0.3c0.2,3.1,1,5.7,2.3,7.7s3.5,3,6.5,3
		c1.4,0,2.7-0.3,4-0.9s2.4-1.5,3.4-2.6C223.6,60.4,223.9,60.7,224.2,61.1z M208.9,43.1c-1.1,1.4-1.8,3.7-2,7h11.7
		c0-2.7-0.5-4.9-1.5-6.6c-1-1.6-2.4-2.5-4.1-2.5C211.4,41.1,210,41.8,208.9,43.1z"/>
	<path class="st0" d="M253.2,61.1c0.3,0.4,0.5,0.7,0.5,1c-1.4,1.8-3,3.1-4.7,3.9c-1.8,0.8-3.8,1.2-6.1,1.2c-2.8,0-5.2-0.6-7.1-1.9
		c-1.9-1.3-3.4-3-4.4-5.2c-1-2.2-1.5-4.7-1.5-7.4c0-2.6,0.5-5.1,1.6-7.3s2.5-4,4.4-5.3c1.9-1.3,4.1-2,6.7-2c3.7,0,6.5,1.1,8.3,3.4
		c1.8,2.3,2.9,5.4,3.1,9.2c-0.2,0.8-0.5,1.5-0.9,2.1c-7.2,0-12.9,0.1-17.1,0.3c0.2,3.1,1,5.7,2.3,7.7s3.5,3,6.5,3
		c1.4,0,2.7-0.3,4-0.9s2.4-1.5,3.4-2.6C252.5,60.4,252.8,60.7,253.2,61.1z M237.8,43.1c-1.1,1.4-1.8,3.7-2,7h11.7
		c0-2.7-0.5-4.9-1.5-6.6c-1-1.6-2.4-2.5-4.1-2.5C240.3,41.1,238.9,41.8,237.8,43.1z"/>
	<path class="st0" d="M258.9,64.2c1.6,0,2.7-0.4,3.3-1.1s0.9-2.1,0.9-4.2V31.5c0-1.1-0.1-1.9-0.3-2.5c-0.2-0.6-0.6-1.1-1.3-1.4
		c-0.7-0.3-1.6-0.5-3-0.5c0-0.9,0.2-1.7,0.5-2.3c1,0,2.5-0.2,4.3-0.7c1.9-0.4,3.2-0.9,3.8-1.4c0.9,0.3,1.3,1.1,1.3,2.4v33.6
		c0,2,0.3,3.4,0.8,4.2c0.5,0.8,1.5,1.1,2.8,1.1c0.2,0.7,0.3,1.6,0.3,2.6c-2.1-0.1-4.4-0.2-6.9-0.2c-2.6,0-5,0.1-7,0.2
		C258.6,65.7,258.7,64.8,258.9,64.2z"/>
	<path class="st0" d="M278.6,66.1c-0.7-0.7-1.1-1.7-1.1-2.8s0.4-2.1,1.3-2.9c0.8-0.8,1.9-1.2,3.2-1.2c1.2,0,2.1,0.4,2.9,1.2
		c0.8,0.8,1.1,1.7,1.1,2.6c0,1.4-0.4,2.4-1.2,3.2c-0.8,0.7-1.9,1.1-3.1,1.1C280.4,67.2,279.4,66.9,278.6,66.1z"/>
</g>
</svg>
