<?xml version="1.0" encoding="utf-8"?>
<!-- Generator: Adobe Illustrator 21.0.0, SVG Export Plug-In . SVG Version: 6.00 Build 0)  -->
<svg version="1.1" id="Layer_1" xmlns="http://www.w3.org/2000/svg" xmlns:xlink="http://www.w3.org/1999/xlink" x="0px" y="0px"
	 viewBox="0 0 300 100" style="enable-background:new 0 0 300 100;" xml:space="preserve">
<style type="text/css">
	.st0{fill:#363944;}
	.st1{enable-background:new    ;}
	.st2{fill:#989899;}
</style>
<g>
	<path class="st0" d="M49.4,56.8c-1.7-0.1-4-0.2-6.7-0.2c-1.7,0-3.7,0-6,0.1c-0.3,0-0.7,0.1-1.2,0.1c0-1.2,0.1-2.1,0.3-2.6
		c1.5,0,2.6-0.4,3.2-1.2c0.7-0.8,1-2.2,1-4.1v-9.3c0-2.7-0.5-4.6-1.5-5.7c-1-1.1-2.4-1.7-4.2-1.7c-1.1,0-2.2,0.3-3.3,1
		c-1.1,0.7-1.9,1.8-2.6,3.4c-0.7,1.5-1,3.5-1,5.8v6.5c0,2,0.3,3.4,0.9,4.2s1.7,1.1,3.3,1.1c0.2,0.6,0.3,1.5,0.3,2.6
		c-3.4-0.1-5.8-0.2-7.3-0.2c-3.1,0-5.5,0.1-7.3,0.2c0-1.2,0.1-2.1,0.3-2.6c1.6,0,2.7-0.4,3.3-1.1c0.6-0.8,0.9-2.1,0.9-4.2V36.8
		c0-1.1-0.1-1.9-0.3-2.5c-0.2-0.6-0.7-1-1.3-1.3c-0.7-0.3-1.6-0.5-2.9-0.5c0-0.9,0.2-1.7,0.5-2.3c1.3-0.1,2.7-0.3,4.3-0.7
		c1.6-0.4,2.9-0.9,3.8-1.3c0.9,0.3,1.3,1.2,1.3,2.7c0,1.3-0.1,2.5-0.4,3.6c0.1-0.1,0.2-0.3,0.3-0.6c0.1-0.3,0.3-0.6,0.6-0.9
		c0.8-1.1,2-2.2,3.6-3.1s3.3-1.3,5.3-1.3c2.6,0,4.7,0.8,6.3,2.4c1.6,1.6,2.4,4.1,2.4,7.6v10.5c0,2,0.3,3.4,0.9,4.2
		c0.6,0.8,1.5,1.1,2.7,1.1C49.3,54.8,49.4,55.7,49.4,56.8z"/>
	<path class="st0" d="M60.5,55.4c-2.1-1.2-3.7-2.9-4.8-5.1c-1.1-2.2-1.7-4.7-1.7-7.6c0-2.7,0.6-5.2,1.8-7.4s2.8-4,4.9-5.2
		c2.1-1.3,4.5-1.9,7.1-1.9c4.3,0,7.6,1.3,10.1,4c2.5,2.6,3.7,6.2,3.7,10.6c0,2.8-0.6,5.2-1.7,7.4c-1.2,2.2-2.8,3.9-4.9,5.2
		s-4.5,1.9-7.2,1.9C65,57.2,62.6,56.6,60.5,55.4z M73.7,51.3c1.2-2,1.8-4.6,1.8-7.9c0-2.4-0.4-4.6-1.1-6.5c-0.8-1.9-1.8-3.3-3-4.3
		c-1.3-1-2.6-1.5-4.1-1.5c-2.3,0-4,0.9-5.2,2.8c-1.2,1.9-1.8,4.4-1.8,7.5c0,4.1,0.7,7.2,2.2,9.5c1.4,2.3,3.4,3.4,5.9,3.4
		C70.6,54.3,72.4,53.3,73.7,51.3z"/>
	<path class="st0" d="M112.9,51.6c0.5,0.6,1.5,0.9,3.1,0.9c0,1.2-0.1,2.1-0.4,2.8c-1.1,0.1-2.3,0.3-3.6,0.6
		c-1.3,0.3-2.5,0.8-3.4,1.3c-0.5-0.2-0.9-0.6-1.2-1c-0.2-0.4-0.4-1.3-0.4-2.5c0-0.7,0.1-1.4,0.2-2.1c0.1-0.7,0.2-1.2,0.3-1.4
		c-0.4,0.8-0.8,1.6-1.4,2.6c-0.7,1.1-1.7,2.1-3.3,3.1s-3.2,1.4-5.1,1.4c-3.7,0-6.5-1.1-8.5-3.3s-3-5.6-3-10.2c0-2.8,0.6-5.5,1.9-7.8
		c1.3-2.4,3.1-4.2,5.4-5.6c2.3-1.4,5-2.1,7.9-2.1c1.7,0,3.4,0.3,5.1,0.9v-7.4c0-1.1-0.1-1.9-0.3-2.5c-0.2-0.6-0.6-1.1-1.3-1.4
		c-0.7-0.3-1.6-0.5-3-0.5c0-0.9,0.2-1.7,0.5-2.3c1,0,2.5-0.2,4.3-0.7c1.9-0.4,3.2-0.9,3.8-1.4c0.9,0.3,1.3,1.1,1.3,2.4v33
		C112.2,49.9,112.5,51,112.9,51.6z M104.6,50.5c1.4-1.9,2.2-4.8,2.2-8.8v-8.6c-0.8-0.7-1.6-1.2-2.4-1.6c-0.8-0.4-1.8-0.5-3-0.5
		c-1.3,0-2.7,0.3-4,1s-2.5,1.9-3.4,3.7s-1.4,4.2-1.4,7.2c0,2.4,0.4,4.4,1.1,6s1.6,2.7,2.7,3.4c1,0.7,2.1,1.1,3.1,1.1
		C101.4,53.3,103.1,52.4,104.6,50.5z"/>
	<path class="st0" d="M144.2,51.1c0.3,0.4,0.5,0.7,0.5,1c-1.4,1.8-3,3.1-4.7,3.9s-3.8,1.2-6.1,1.2c-2.8,0-5.2-0.6-7.1-1.9
		c-1.9-1.3-3.4-3-4.4-5.2s-1.5-4.7-1.5-7.4c0-2.6,0.5-5.1,1.6-7.3c1-2.2,2.5-4,4.4-5.3c1.9-1.3,4.1-2,6.7-2c3.7,0,6.5,1.1,8.3,3.4
		s2.9,5.4,3.1,9.2c-0.2,0.8-0.5,1.5-0.9,2.1c-7.2,0-12.9,0.1-17.1,0.3c0.2,3.1,1,5.7,2.3,7.7c1.4,2,3.5,3,6.5,3c1.4,0,2.7-0.3,4-0.9
		c1.3-0.6,2.4-1.5,3.4-2.6C143.5,50.4,143.9,50.7,144.2,51.1z M128.8,33.1c-1.1,1.4-1.8,3.7-2,7h11.7c0-2.7-0.5-4.9-1.5-6.6
		c-1-1.6-2.4-2.5-4.1-2.5C131.3,31.1,130,31.8,128.8,33.1z"/>
	<path class="st0" d="M168.5,42.7c-5.9,0-11.7,0.1-17.5,0.2c0-0.7,0.1-1.4,0.3-2.2s0.4-1.5,0.7-2h17.3
		C169.3,40.3,169,41.6,168.5,42.7z"/>
	<path class="st0" d="M197.3,30.2c-0.3,1.9-0.4,4.3-0.4,7.2c-1.1,0.4-2.3,0.5-3.5,0.5c-0.1-1.8-0.4-3.1-0.9-3.8s-1.2-1-2.1-1
		c-0.7,0-1.5,0.4-2.3,1.2s-1.5,1.9-2,3.2s-0.8,2.8-0.8,4.3v5.9c0,1.8,0.2,3.1,0.5,4c0.4,0.9,0.9,1.5,1.7,1.9
		c0.8,0.3,1.8,0.6,3.2,0.6c0.2,0.6,0.3,1.4,0.3,2.6c-1.9-0.1-4.4-0.2-7.7-0.2c-3.8,0-6.5,0.1-8.1,0.2c0-1.2,0.1-2.1,0.3-2.6
		c1.6-0.1,2.7-0.5,3.3-1.2s0.9-2.1,0.9-4.1V36.8c0-1.1-0.1-1.9-0.3-2.5s-0.7-1-1.3-1.3c-0.7-0.3-1.6-0.5-2.9-0.5
		c0-0.9,0.2-1.7,0.5-2.3c1.3-0.1,2.7-0.3,4.3-0.7c1.6-0.4,2.9-0.9,3.8-1.3c0.9,0.3,1.3,1.2,1.3,2.7c0,1.4-0.1,2.7-0.4,3.9
		c-0.2,1.2-0.4,1.9-0.4,2.1c0.1-0.2,0.2-0.7,0.5-1.5c0.2-0.7,0.5-1.3,0.8-1.7c2.1-3.3,4.5-4.9,7.4-4.9
		C194.6,28.7,196,29.2,197.3,30.2z"/>
	<path class="st0" d="M224.2,51.1c0.3,0.4,0.5,0.7,0.5,1c-1.4,1.8-3,3.1-4.7,3.9c-1.8,0.8-3.8,1.2-6.1,1.2c-2.8,0-5.2-0.6-7.1-1.9
		c-1.9-1.3-3.4-3-4.4-5.2s-1.5-4.7-1.5-7.4c0-2.6,0.5-5.1,1.6-7.3s2.5-4,4.4-5.3s4.1-2,6.7-2c3.7,0,6.5,1.1,8.3,3.4s2.9,5.4,3.1,9.2
		c-0.2,0.8-0.5,1.5-0.9,2.1c-7.2,0-12.9,0.1-17.1,0.3c0.2,3.1,1,5.7,2.3,7.7s3.5,3,6.5,3c1.4,0,2.7-0.3,4-0.9s2.4-1.5,3.4-2.6
		C223.6,50.4,223.9,50.7,224.2,51.1z M208.9,33.1c-1.1,1.4-1.8,3.7-2,7h11.7c0-2.7-0.5-4.9-1.5-6.6c-1-1.6-2.4-2.5-4.1-2.5
		C211.4,31.1,210,31.8,208.9,33.1z"/>
	<path class="st0" d="M253.2,51.1c0.3,0.4,0.5,0.7,0.5,1c-1.4,1.8-3,3.1-4.7,3.9c-1.8,0.8-3.8,1.2-6.1,1.2c-2.8,0-5.2-0.6-7.1-1.9
		c-1.9-1.3-3.4-3-4.4-5.2s-1.5-4.7-1.5-7.4c0-2.6,0.5-5.1,1.6-7.3s2.5-4,4.4-5.3s4.1-2,6.7-2c3.7,0,6.5,1.1,8.3,3.4s2.9,5.4,3.1,9.2
		c-0.2,0.8-0.5,1.5-0.9,2.1c-7.2,0-12.9,0.1-17.1,0.3c0.2,3.1,1,5.7,2.3,7.7s3.5,3,6.5,3c1.4,0,2.7-0.3,4-0.9s2.4-1.5,3.4-2.6
		C252.5,50.4,252.8,50.7,253.2,51.1z M237.8,33.1c-1.1,1.4-1.8,3.7-2,7h11.7c0-2.7-0.5-4.9-1.5-6.6c-1-1.6-2.4-2.5-4.1-2.5
		C240.3,31.1,238.9,31.8,237.8,33.1z"/>
	<path class="st0" d="M258.9,54.2c1.6,0,2.7-0.4,3.3-1.1s0.9-2.1,0.9-4.2V21.5c0-1.1-0.1-1.9-0.3-2.5c-0.2-0.6-0.6-1.1-1.3-1.4
		c-0.7-0.3-1.6-0.5-3-0.5c0-0.9,0.2-1.7,0.5-2.3c1,0,2.5-0.2,4.3-0.7c1.9-0.4,3.2-0.9,3.8-1.4c0.9,0.3,1.3,1.1,1.3,2.4v33.6
		c0,2,0.3,3.4,0.8,4.2s1.5,1.1,2.8,1.1c0.2,0.7,0.3,1.6,0.3,2.6c-2.1-0.1-4.4-0.2-6.9-0.2c-2.6,0-5,0.1-7,0.2
		C258.6,55.7,258.7,54.8,258.9,54.2z"/>
	<path class="st0" d="M278.6,56.1c-0.7-0.7-1.1-1.7-1.1-2.8s0.4-2.1,1.3-2.9c0.8-0.8,1.9-1.2,3.2-1.2c1.2,0,2.1,0.4,2.9,1.2
		s1.1,1.7,1.1,2.6c0,1.4-0.4,2.4-1.2,3.2c-0.8,0.7-1.9,1.1-3.1,1.1C280.4,57.2,279.4,56.9,278.6,56.1z"/>
</g>
<g class="st1">
	<path class="st2" d="M29,80.7c-0.6,0-1.3-0.1-2.2-0.1c-0.6,0-1.2,0-2,0c-0.1,0-0.2,0-0.4,0c0-0.4,0-0.7,0.1-0.9
		c0.5,0,0.9-0.1,1.1-0.4c0.2-0.3,0.3-0.7,0.3-1.4l0-3.1c0-0.9-0.2-1.6-0.5-1.9c-0.3-0.4-0.8-0.6-1.4-0.6c-0.4,0-0.8,0.1-1.1,0.3
		c-0.4,0.2-0.7,0.6-0.9,1.1c-0.2,0.5-0.3,1.2-0.3,2l0,2.2c0,0.7,0.1,1.2,0.3,1.4c0.2,0.3,0.6,0.4,1.1,0.4c0.1,0.2,0.1,0.5,0.1,0.9
		c-1.2,0-2-0.1-2.5-0.1c-1,0-1.8,0-2.5,0.1c0-0.4,0-0.7,0.1-0.9c0.5,0,0.9-0.1,1.1-0.4c0.2-0.3,0.3-0.7,0.3-1.4l0-9.2
		c0-0.4,0-0.6-0.1-0.8s-0.2-0.4-0.4-0.5s-0.6-0.2-1-0.2c0-0.3,0.1-0.6,0.2-0.8c0.3,0,0.8-0.1,1.5-0.2c0.6-0.1,1.1-0.3,1.3-0.5
		c0.3,0.1,0.5,0.4,0.5,0.8l0,5.2c0,0.4,0,0.8-0.1,1.2c0,0,0.1-0.1,0.1-0.2c0-0.1,0.1-0.2,0.2-0.3c0.3-0.4,0.7-0.7,1.2-1
		s1.1-0.5,1.8-0.5c0.9,0,1.6,0.3,2.1,0.8c0.5,0.5,0.8,1.4,0.8,2.6l0,3.5c0,0.7,0.1,1.2,0.3,1.4c0.2,0.3,0.5,0.4,0.9,0.4
		C29,80.1,29,80.4,29,80.7z"/>
	<path class="st2" d="M39.5,79c0.2,0.2,0.5,0.3,1,0.3c0,0.4,0,0.7-0.1,0.9c-0.4,0-0.8,0.1-1.2,0.2c-0.5,0.1-0.8,0.3-1.1,0.4
		c-0.2-0.1-0.3-0.2-0.4-0.3c-0.1-0.1-0.1-0.4-0.1-0.9c0-0.3,0-0.6,0.1-0.9c-0.1,0.3-0.3,0.6-0.7,0.9c-0.4,0.4-0.8,0.6-1.2,0.8
		c-0.4,0.2-0.9,0.2-1.4,0.2c-1,0-1.7-0.3-2.2-0.8c-0.5-0.6-0.7-1.5-0.7-2.8l0-3.1c0-0.4,0-0.7-0.1-0.8c-0.1-0.2-0.2-0.3-0.4-0.4
		c-0.2-0.1-0.5-0.2-0.9-0.2c0-0.3,0-0.6,0.1-0.8c0.4,0,0.9-0.1,1.4-0.2c0.5-0.1,0.9-0.3,1.2-0.5c0.3,0.1,0.5,0.4,0.5,0.9l0,4.7
		c0,1,0.1,1.7,0.4,2.2c0.3,0.5,0.7,0.7,1.3,0.7c0.7,0,1.3-0.3,1.7-0.9s0.7-1.5,0.7-2.6l0-2.1c0-0.4,0-0.6-0.1-0.8
		c-0.1-0.2-0.2-0.4-0.4-0.5c-0.2-0.1-0.5-0.2-1-0.2c0-0.2,0-0.3,0-0.4c0-0.1,0.1-0.2,0.1-0.3c0.5,0,1-0.1,1.6-0.2
		c0.5-0.1,0.9-0.2,1.2-0.4c0.3,0.1,0.5,0.4,0.5,0.9l0,5.9C39.3,78.4,39.4,78.8,39.5,79z"/>
	<path class="st2" d="M58.9,80.8c-0.6,0-1.4-0.1-2.2-0.1c-0.9,0-1.8,0-2.5,0.1c0-0.4,0-0.7,0.1-0.9c0.5,0,0.9-0.2,1.1-0.4
		c0.2-0.2,0.3-0.7,0.3-1.4l0-3.1c0-0.9-0.2-1.6-0.5-1.9s-0.8-0.6-1.4-0.6c-0.4,0-0.7,0.1-1.1,0.3c-0.3,0.2-0.6,0.6-0.9,1.1
		c-0.2,0.5-0.3,1.2-0.3,2l0,2.2c0,0.7,0.1,1.2,0.3,1.4c0.2,0.2,0.6,0.4,1.1,0.4c0.1,0.2,0.1,0.5,0.1,0.9c-0.7,0-1.5-0.1-2.5-0.1
		c-0.9,0-1.7,0-2.5,0.1c0-0.4,0-0.7,0.1-0.9c0.5,0,0.9-0.2,1.1-0.4c0.2-0.2,0.3-0.7,0.3-1.4l0-3.2c0-0.9-0.2-1.6-0.5-1.9
		c-0.3-0.4-0.8-0.6-1.4-0.6c-0.4,0-0.8,0.1-1.1,0.3s-0.6,0.6-0.9,1.1c-0.2,0.5-0.3,1.2-0.3,2l0,2.3c0,0.7,0.1,1.1,0.3,1.4
		c0.2,0.2,0.6,0.4,1.1,0.4c0.1,0.2,0.1,0.5,0.1,0.9c-0.7,0-1.5-0.1-2.5-0.1c-1,0-1.8,0-2.5,0.1c0-0.4,0-0.7,0.1-0.9
		c0.5,0,0.9-0.2,1.1-0.4c0.2-0.2,0.3-0.7,0.3-1.4l0-4.1c0-0.4,0-0.6-0.1-0.8s-0.2-0.4-0.4-0.5c-0.2-0.1-0.5-0.2-1-0.2
		c0-0.3,0.1-0.6,0.2-0.8c0.4,0,0.8-0.1,1.4-0.3c0.6-0.1,1-0.3,1.3-0.4c0.3,0.1,0.5,0.4,0.5,0.8c0,0.3,0,0.8-0.1,1.3
		c0.2-0.4,0.3-0.6,0.3-0.7c0.3-0.4,0.7-0.7,1.2-1c0.5-0.3,1.1-0.5,1.8-0.4c0.6,0,1.2,0.1,1.6,0.4c0.5,0.3,0.8,0.7,1,1.3
		c0.1,0.2,0.1,0.4,0.1,0.5c0.1-0.3,0.2-0.5,0.4-0.7c0.3-0.4,0.7-0.7,1.2-1c0.5-0.3,1.1-0.5,1.8-0.5c0.9,0,1.5,0.3,2.1,0.8
		c0.5,0.5,0.8,1.4,0.8,2.6l0,3.5c0,0.7,0.1,1.1,0.3,1.4c0.2,0.2,0.5,0.4,1,0.4C58.9,80.1,58.9,80.4,58.9,80.8z"/>
	<path class="st2" d="M67.9,78.7c0.1,0.2,0.2,0.4,0.4,0.5c0.2,0.1,0.5,0.2,0.8,0.2c0,0.4,0,0.7-0.1,0.9c-0.3,0-0.7,0.1-1.1,0.2
		c-0.4,0.1-0.8,0.3-1.1,0.4c-0.2-0.1-0.3-0.2-0.4-0.4c-0.1-0.2-0.1-0.5-0.1-0.8c0-0.2,0-0.4,0-0.5c-0.2,0.4-0.4,0.7-0.7,1
		c-0.5,0.5-1.3,0.7-2.2,0.7c-0.9,0-1.5-0.2-2-0.6c-0.5-0.4-0.7-0.9-0.7-1.6c0-0.8,0.3-1.5,0.9-1.9c0.6-0.5,1.3-0.8,2-1
		c0.7-0.2,1.5-0.4,2.4-0.5c0-0.8,0-1.4-0.1-1.7c-0.1-0.3-0.2-0.6-0.3-0.8c-0.3-0.4-0.8-0.6-1.3-0.6c-0.6,0-1.1,0.3-1.4,0.8
		c-0.3,0.5-0.4,1.1-0.5,1.6c-0.2,0-0.4,0-0.6,0c-0.2,0-0.4-0.1-0.5-0.1c0-0.1,0-0.4,0-0.7c0-0.6,0-1.1-0.1-1.5
		c0.6-0.3,1.1-0.5,1.8-0.7c0.6-0.2,1.2-0.2,1.7-0.2c0.9,0,1.7,0.3,2.2,0.8c0.3,0.3,0.6,0.8,0.7,1.3c0.1,0.5,0.2,1.3,0.2,2.3l0,2.3
		C67.8,78.2,67.8,78.5,67.9,78.7z M65.9,76.1c-0.7,0.1-1.2,0.2-1.6,0.3c-0.4,0.1-0.8,0.3-1.1,0.6c-0.3,0.3-0.5,0.7-0.5,1.3
		c0,0.5,0.1,0.8,0.3,1.1c0.2,0.2,0.5,0.4,0.9,0.4c0.3,0,0.6-0.1,1-0.3c0.3-0.2,0.6-0.5,0.8-1c0.2-0.4,0.3-1,0.3-1.6L65.9,76.1z"/>
	<path class="st2" d="M81.5,80.9c-0.6,0-1.3-0.1-2.2-0.1c-0.6,0-1.2,0-2,0c-0.1,0-0.2,0-0.4,0c0-0.4,0-0.7,0.1-0.9
		c0.5,0,0.9-0.1,1.1-0.4c0.2-0.3,0.3-0.7,0.3-1.4l0-3.1c0-0.9-0.2-1.6-0.5-1.9c-0.3-0.4-0.8-0.6-1.4-0.6c-0.4,0-0.8,0.1-1.1,0.3
		c-0.4,0.2-0.7,0.6-0.9,1.1c-0.2,0.5-0.3,1.2-0.3,2l0,2.2c0,0.7,0.1,1.2,0.3,1.4c0.2,0.3,0.6,0.4,1.1,0.4c0.1,0.2,0.1,0.5,0.1,0.9
		c-1.2,0-2-0.1-2.5-0.1c-1,0-1.9,0-2.5,0.1c0-0.4,0-0.7,0.1-0.9c0.5,0,0.9-0.1,1.1-0.4c0.2-0.3,0.3-0.7,0.3-1.4l0-4.1
		c0-0.4,0-0.6-0.1-0.8s-0.2-0.4-0.4-0.5c-0.2-0.1-0.5-0.2-1-0.2c0-0.3,0.1-0.6,0.2-0.8c0.4,0,0.9-0.1,1.5-0.2c0.6-0.1,1-0.3,1.3-0.5
		c0.3,0.1,0.5,0.4,0.5,0.9c0,0.4,0,0.8-0.1,1.2c0,0,0.1-0.1,0.1-0.2c0-0.1,0.1-0.2,0.2-0.3c0.3-0.4,0.7-0.7,1.2-1
		c0.5-0.3,1.1-0.5,1.8-0.5c0.9,0,1.6,0.3,2.1,0.8c0.5,0.5,0.8,1.4,0.8,2.6l0,3.5c0,0.7,0.1,1.2,0.3,1.4c0.2,0.3,0.5,0.4,0.9,0.4
		C81.4,80.2,81.5,80.5,81.5,80.9z"/>
	<path class="st2" d="M94.2,66.2c0.3,0.1,0.5,0.2,0.8,0.4c-0.1,0.8-0.1,1.6-0.1,2.4c-0.4,0.1-0.8,0.2-1.2,0.2c0-0.6-0.1-1.1-0.4-1.4
		c-0.3-0.4-0.7-0.5-1.2-0.5c-0.5,0-0.9,0.2-1.2,0.7c-0.2,0.5-0.4,1.2-0.4,2.2l0,1.5l2.1,0c0,0.4-0.1,0.7-0.2,0.9
		c-0.7,0-1.3,0.1-1.9,0.2l0,5c0,0.6,0.1,1,0.2,1.4c0.1,0.3,0.3,0.5,0.6,0.6c0.3,0.1,0.6,0.2,1.1,0.2c0.1,0.2,0.1,0.5,0.1,0.9
		c-0.6,0-1.5-0.1-2.6-0.1c-1.3,0-2.2,0-2.7,0.1c0-0.4,0-0.7,0.1-0.9c0.5,0,0.9-0.2,1.1-0.4c0.2-0.2,0.3-0.7,0.3-1.4l0-5.5
		c-0.5-0.1-1.1-0.2-1.6-0.2c0-0.4,0.1-0.7,0.3-0.9l1.4,0l0-0.8c0-1,0.2-1.8,0.6-2.5c0.4-0.7,0.9-1.2,1.6-1.6
		c0.7-0.4,1.4-0.5,2.1-0.5C93.5,66.1,93.9,66.2,94.2,66.2z"/>
	<path class="st2" d="M101.6,71.9c-0.1,0.6-0.1,1.4-0.1,2.4c-0.4,0.1-0.8,0.2-1.2,0.2c0-0.6-0.1-1-0.3-1.3c-0.2-0.2-0.4-0.3-0.7-0.3
		c-0.2,0-0.5,0.1-0.8,0.4s-0.5,0.6-0.7,1.1c-0.2,0.5-0.3,0.9-0.3,1.4l0,2c0,0.6,0.1,1,0.2,1.3s0.3,0.5,0.6,0.6
		c0.3,0.1,0.6,0.2,1.1,0.2c0.1,0.2,0.1,0.5,0.1,0.9c-0.6,0-1.5-0.1-2.6-0.1c-1.3,0-2.2,0-2.7,0.1c0-0.4,0-0.7,0.1-0.9
		c0.5,0,0.9-0.2,1.1-0.4c0.2-0.2,0.3-0.7,0.3-1.4l0-4.1c0-0.4,0-0.6-0.1-0.8c-0.1-0.2-0.2-0.4-0.4-0.5c-0.2-0.1-0.5-0.2-1-0.2
		c0-0.3,0.1-0.6,0.2-0.8c0.4,0,0.9-0.1,1.5-0.2c0.6-0.1,1-0.3,1.3-0.5c0.3,0.1,0.5,0.4,0.5,0.9c0,0.5,0,0.9-0.1,1.3
		c-0.1,0.4-0.1,0.6-0.1,0.7c0-0.1,0.1-0.2,0.2-0.5c0.1-0.2,0.2-0.4,0.3-0.6c0.7-1.1,1.5-1.7,2.5-1.7
		C100.7,71.4,101.2,71.6,101.6,71.9z"/>
	<path class="st2" d="M102.9,80c0.5,0,0.9-0.1,1.1-0.4c0.2-0.3,0.3-0.7,0.3-1.4l0-4.1c0-0.4,0-0.6-0.1-0.8s-0.2-0.4-0.4-0.5
		c-0.2-0.1-0.6-0.2-1-0.2c0-0.3,0.1-0.6,0.2-0.8c0.3,0,0.8-0.1,1.5-0.2c0.6-0.1,1.1-0.3,1.3-0.5c0.3,0.1,0.5,0.4,0.5,0.8l0,6.2
		c0,0.7,0.1,1.2,0.3,1.4c0.2,0.3,0.5,0.4,0.9,0.4c0.1,0.2,0.1,0.5,0.1,0.9c-0.7,0-1.5-0.1-2.3-0.1c-0.9,0-1.7,0-2.4,0.1
		C102.8,80.5,102.8,80.2,102.9,80z M104.2,68.5c-0.2-0.2-0.3-0.5-0.3-0.8c0-0.4,0.1-0.7,0.4-0.9s0.5-0.4,0.9-0.4
		c0.4,0,0.7,0.1,0.9,0.4c0.2,0.2,0.3,0.5,0.3,0.9c0,0.3-0.1,0.6-0.4,0.8c-0.2,0.2-0.5,0.4-0.9,0.4C104.7,68.9,104.4,68.8,104.2,68.5
		z"/>
	<path class="st2" d="M116.9,79c0.1,0.1,0.2,0.2,0.2,0.4c-0.5,0.6-1,1-1.6,1.3c-0.6,0.3-1.3,0.4-2.1,0.4c-0.9,0-1.7-0.2-2.4-0.7
		c-0.7-0.4-1.1-1-1.5-1.8c-0.3-0.7-0.5-1.6-0.5-2.5c0-0.9,0.2-1.7,0.5-2.5c0.4-0.7,0.9-1.3,1.5-1.8c0.6-0.4,1.4-0.7,2.2-0.7
		c1.3,0,2.2,0.4,2.8,1.2c0.6,0.8,1,1.8,1.1,3.1c-0.1,0.3-0.2,0.5-0.3,0.7c-2.4,0-4.3,0-5.8,0.1c0.1,1.1,0.3,1.9,0.8,2.6
		c0.5,0.7,1.2,1,2.2,1c0.5,0,0.9-0.1,1.4-0.3c0.4-0.2,0.8-0.5,1.2-0.9C116.7,78.8,116.8,78.9,116.9,79z M111.7,72.9
		c-0.4,0.5-0.6,1.2-0.7,2.3l4,0c0-0.9-0.2-1.7-0.5-2.2c-0.3-0.6-0.8-0.8-1.4-0.8C112.6,72.2,112.1,72.5,111.7,72.9z"/>
	<path class="st2" d="M129.5,81c-0.6,0-1.3-0.1-2.2-0.1c-0.6,0-1.2,0-2,0c-0.1,0-0.2,0-0.4,0c0-0.4,0-0.7,0.1-0.9
		c0.5,0,0.9-0.1,1.1-0.4c0.2-0.3,0.3-0.7,0.3-1.4l0-3.1c0-0.9-0.2-1.6-0.5-1.9c-0.3-0.4-0.8-0.6-1.4-0.6c-0.4,0-0.8,0.1-1.1,0.3
		c-0.4,0.2-0.7,0.6-0.9,1.1c-0.2,0.5-0.3,1.2-0.3,2l0,2.2c0,0.7,0.1,1.2,0.3,1.4c0.2,0.3,0.6,0.4,1.1,0.4c0.1,0.2,0.1,0.5,0.1,0.9
		c-1.2,0-2-0.1-2.5-0.1c-1,0-1.9,0-2.5,0.1c0-0.4,0-0.7,0.1-0.9c0.5,0,0.9-0.1,1.1-0.4c0.2-0.3,0.3-0.7,0.3-1.4l0-4.1
		c0-0.4,0-0.6-0.1-0.8s-0.2-0.4-0.4-0.5c-0.2-0.1-0.5-0.2-1-0.2c0-0.3,0.1-0.6,0.2-0.8c0.4,0,0.9-0.1,1.5-0.2c0.6-0.1,1-0.3,1.3-0.5
		c0.3,0.1,0.5,0.4,0.5,0.9c0,0.4,0,0.8-0.1,1.2c0,0,0.1-0.1,0.1-0.2c0-0.1,0.1-0.2,0.2-0.3c0.3-0.4,0.7-0.7,1.2-1
		c0.5-0.3,1.1-0.5,1.8-0.5c0.9,0,1.6,0.3,2.1,0.8c0.5,0.5,0.8,1.4,0.8,2.6l0,3.5c0,0.7,0.1,1.2,0.3,1.4c0.2,0.3,0.5,0.4,0.9,0.4
		C129.5,80.3,129.5,80.6,129.5,81z"/>
	<path class="st2" d="M140,79.2c0.2,0.2,0.5,0.3,1,0.3c0,0.4,0,0.7-0.1,0.9c-0.4,0-0.8,0.1-1.2,0.2c-0.5,0.1-0.8,0.3-1.1,0.4
		c-0.2-0.1-0.3-0.2-0.4-0.3c-0.1-0.1-0.1-0.4-0.1-0.9c0-0.2,0-0.5,0.1-0.7c0-0.2,0.1-0.4,0.1-0.5c-0.1,0.3-0.3,0.5-0.5,0.9
		c-0.2,0.4-0.6,0.7-1.1,1c-0.5,0.3-1.1,0.5-1.7,0.5c-1.2,0-2.2-0.4-2.9-1.1c-0.7-0.8-1-1.9-1-3.5c0-1,0.2-1.8,0.6-2.6
		c0.4-0.8,1-1.4,1.8-1.9c0.8-0.5,1.7-0.7,2.7-0.7c0.6,0,1.1,0.1,1.7,0.3l0-2.5c0-0.4,0-0.6-0.1-0.8c-0.1-0.2-0.2-0.4-0.4-0.5
		c-0.2-0.1-0.6-0.2-1-0.2c0-0.3,0.1-0.6,0.2-0.8c0.3,0,0.8-0.1,1.5-0.2c0.6-0.2,1.1-0.3,1.3-0.5c0.3,0.1,0.5,0.4,0.5,0.8l0,11.2
		C139.8,78.6,139.9,79,140,79.2z M137.2,78.8c0.5-0.6,0.7-1.6,0.7-3l0-2.9c-0.3-0.2-0.5-0.4-0.8-0.5c-0.3-0.1-0.6-0.2-1-0.2
		c-0.5,0-0.9,0.1-1.4,0.3c-0.5,0.2-0.8,0.6-1.2,1.2c-0.3,0.6-0.5,1.4-0.5,2.4c0,0.8,0.1,1.5,0.4,2c0.2,0.5,0.5,0.9,0.9,1.2
		c0.4,0.2,0.7,0.4,1,0.4C136.1,79.8,136.7,79.5,137.2,78.8z"/>
	<path class="st2" d="M142.8,80.1c0.5,0,0.9-0.1,1.1-0.4c0.2-0.3,0.3-0.7,0.3-1.4l0-9.2c0-0.4,0-0.6-0.1-0.8
		c-0.1-0.2-0.2-0.4-0.4-0.5c-0.2-0.1-0.6-0.2-1-0.2c0-0.3,0.1-0.6,0.2-0.8c0.3,0,0.8-0.1,1.5-0.2c0.6-0.2,1.1-0.3,1.3-0.5
		c0.3,0.1,0.5,0.4,0.5,0.8l0,11.3c0,0.7,0.1,1.2,0.3,1.4c0.2,0.3,0.5,0.4,0.9,0.4c0.1,0.2,0.1,0.5,0.1,0.9c-0.7,0-1.5-0.1-2.3-0.1
		c-0.9,0-1.7,0-2.4,0.1C142.6,80.6,142.7,80.3,142.8,80.1z"/>
	<path class="st2" d="M158.9,71.5c0,0.4,0,0.7-0.1,0.9c-0.4,0.1-0.7,0.3-0.9,0.5c-0.2,0.3-0.5,0.8-0.8,1.6l-3,7.2
		c-0.5,1.2-1,2.2-1.3,2.8s-0.7,1-1.1,1.3c-0.3,0.2-0.7,0.3-1.2,0.3c-0.6,0-1.1-0.2-1.5-0.5c0-0.2-0.1-0.4-0.1-0.6
		c0-0.3,0-0.6,0.1-0.9c0.5,0.1,0.9,0.1,1.3,0.1c0.9,0,1.6-0.4,2.1-1.2c0.2-0.3,0.6-1,1-1.9c-0.7-1.7-1.7-3.7-2.8-6.2
		c-0.3-0.7-0.6-1.2-0.8-1.5c-0.2-0.3-0.4-0.6-0.6-0.7c-0.2-0.1-0.4-0.2-0.6-0.3c-0.1-0.2-0.1-0.5-0.1-0.9c1,0,1.8,0,2.3,0
		c0.7,0,1.6,0,2.7,0c0,0.4,0,0.7-0.1,0.9c-0.5,0.1-0.8,0.2-1,0.3c-0.2,0.1-0.3,0.3-0.3,0.6c0,0.3,0.1,0.7,0.4,1.3
		c0.5,0.9,1.1,2.4,1.8,4.2l0.2-0.5l1.4-3.6c0.2-0.6,0.4-1,0.4-1.4c0-0.3-0.1-0.6-0.3-0.7c-0.2-0.2-0.5-0.3-1-0.4
		c-0.1-0.3-0.1-0.6-0.1-0.9c0.4,0,1.1,0,2,0C157.8,71.5,158.5,71.5,158.9,71.5z"/>
	<path class="st2" d="M165.8,80.6c-0.7-0.4-1.2-0.9-1.6-1.7c-0.4-0.7-0.6-1.6-0.6-2.7c0-0.9,0.2-1.7,0.5-2.4
		c0.3-0.8,0.8-1.4,1.5-1.8c0.6-0.5,1.4-0.7,2.3-0.7c1.3,0,2.3,0.3,3.1,0.9c-0.1,0.6-0.1,1.4-0.2,2.3c-0.2,0.1-0.5,0.2-0.9,0.2
		c-0.1-0.8-0.3-1.4-0.7-1.8c-0.4-0.4-0.9-0.7-1.5-0.7c-0.7,0-1.2,0.3-1.6,1c-0.4,0.6-0.6,1.5-0.6,2.7c0,0.7,0.1,1.4,0.3,2
		c0.2,0.6,0.6,1.1,1,1.5c0.4,0.4,1,0.6,1.6,0.6c0.4,0,0.9-0.1,1.2-0.3s0.7-0.5,1-0.9c0.1,0.1,0.2,0.1,0.3,0.2
		c0.1,0.1,0.2,0.2,0.2,0.3c-0.8,1.2-1.9,1.8-3.4,1.8C167.1,81.2,166.4,81,165.8,80.6z"/>
	<path class="st2" d="M180.2,72.1c-0.1,0.6-0.1,1.4-0.1,2.4c-0.4,0.1-0.8,0.2-1.2,0.2c0-0.6-0.1-1-0.3-1.3c-0.2-0.2-0.4-0.3-0.7-0.3
		c-0.2,0-0.5,0.1-0.8,0.4c-0.3,0.3-0.5,0.6-0.7,1.1s-0.3,0.9-0.3,1.4l0,2c0,0.6,0.1,1,0.2,1.4c0.1,0.3,0.3,0.5,0.6,0.6
		c0.3,0.1,0.6,0.2,1.1,0.2c0.1,0.2,0.1,0.5,0.1,0.9c-0.6,0-1.5-0.1-2.6-0.1c-1.3,0-2.2,0-2.7,0.1c0-0.4,0-0.7,0.1-0.9
		c0.5,0,0.9-0.2,1.1-0.4c0.2-0.2,0.3-0.7,0.3-1.4l0-4.1c0-0.4,0-0.6-0.1-0.8c-0.1-0.2-0.2-0.4-0.4-0.5s-0.5-0.2-1-0.2
		c0-0.3,0.1-0.6,0.2-0.8c0.4,0,0.9-0.1,1.5-0.2c0.5-0.1,1-0.3,1.3-0.5c0.3,0.1,0.5,0.4,0.5,0.9c0,0.5,0,0.9-0.1,1.3
		c-0.1,0.4-0.1,0.6-0.1,0.7c0-0.1,0.1-0.2,0.2-0.5c0.1-0.2,0.2-0.4,0.3-0.6c0.7-1.1,1.5-1.7,2.5-1.7
		C179.3,71.6,179.8,71.7,180.2,72.1z"/>
	<path class="st2" d="M183.6,80.6c-0.7-0.4-1.2-1-1.6-1.7s-0.6-1.6-0.6-2.6c0-0.9,0.2-1.8,0.6-2.5c0.4-0.7,1-1.3,1.7-1.8
		c0.7-0.4,1.5-0.6,2.4-0.6c1.4,0,2.6,0.5,3.4,1.3c0.8,0.9,1.2,2.1,1.2,3.6c0,0.9-0.2,1.8-0.6,2.5s-0.9,1.3-1.7,1.7
		c-0.7,0.4-1.5,0.6-2.4,0.6C185.1,81.2,184.3,81,183.6,80.6z M188,79.2c0.4-0.7,0.6-1.6,0.6-2.7c0-0.8-0.1-1.6-0.4-2.2
		c-0.3-0.6-0.6-1.1-1-1.5c-0.4-0.3-0.9-0.5-1.4-0.5c-0.8,0-1.4,0.3-1.8,0.9c-0.4,0.6-0.6,1.5-0.6,2.5c0,1.4,0.2,2.4,0.7,3.2
		c0.5,0.8,1.2,1.1,2,1.1C187,80.2,187.6,79.9,188,79.2z"/>
	<path class="st2" d="M203.1,81.1c-0.6,0-1.3-0.1-2.2-0.1c-0.6,0-1.2,0-2,0c-0.1,0-0.2,0-0.4,0c0-0.4,0-0.7,0.1-0.9
		c0.5,0,0.9-0.1,1.1-0.4c0.2-0.3,0.3-0.7,0.3-1.4l0-3.1c0-0.9-0.2-1.6-0.5-1.9c-0.3-0.4-0.8-0.6-1.4-0.6c-0.4,0-0.8,0.1-1.1,0.3
		c-0.4,0.2-0.7,0.6-0.9,1.1c-0.2,0.5-0.3,1.2-0.3,2l0,2.2c0,0.7,0.1,1.2,0.3,1.4c0.2,0.3,0.6,0.4,1.1,0.4c0.1,0.2,0.1,0.5,0.1,0.9
		c-1.2,0-2-0.1-2.5-0.1c-1,0-1.9,0-2.5,0.1c0-0.4,0-0.7,0.1-0.9c0.5,0,0.9-0.1,1.1-0.4c0.2-0.3,0.3-0.7,0.3-1.4l0-4.1
		c0-0.4,0-0.6-0.1-0.8c-0.1-0.2-0.2-0.4-0.4-0.5s-0.5-0.2-1-0.2c0-0.3,0.1-0.6,0.2-0.8c0.4,0,0.9-0.1,1.5-0.2c0.5-0.1,1-0.3,1.3-0.5
		c0.3,0.1,0.5,0.4,0.5,0.9c0,0.4,0,0.8-0.1,1.2c0,0,0.1-0.1,0.1-0.2c0-0.1,0.1-0.2,0.2-0.3c0.3-0.4,0.7-0.7,1.2-1
		c0.5-0.3,1.1-0.5,1.8-0.5c0.9,0,1.6,0.3,2.1,0.8c0.5,0.5,0.8,1.4,0.8,2.6l0,3.5c0,0.7,0.1,1.2,0.3,1.4c0.2,0.3,0.5,0.4,0.9,0.4
		C203.1,80.4,203.1,80.7,203.1,81.1z"/>
	<path class="st2" d="M215.8,66.5c0.3,0.1,0.5,0.2,0.8,0.4c-0.1,0.8-0.1,1.6-0.1,2.4c-0.4,0.1-0.8,0.2-1.2,0.2
		c0-0.6-0.1-1.1-0.4-1.4s-0.7-0.5-1.2-0.5c-0.5,0-0.9,0.2-1.2,0.7c-0.2,0.5-0.4,1.2-0.4,2.2l0,1.5l2.1,0c0,0.4-0.1,0.7-0.2,0.9
		c-0.7,0-1.3,0.1-1.9,0.2l0,5c0,0.6,0.1,1,0.2,1.3c0.1,0.3,0.3,0.5,0.6,0.6c0.3,0.1,0.6,0.2,1.1,0.2c0.1,0.2,0.1,0.5,0.1,0.9
		c-0.6,0-1.5-0.1-2.6-0.1c-1.3,0-2.2,0-2.7,0.1c0-0.4,0-0.7,0.1-0.9c0.5,0,0.9-0.2,1.1-0.4c0.2-0.2,0.3-0.7,0.3-1.4l0-5.5
		c-0.5-0.1-1.1-0.2-1.6-0.2c0-0.4,0.1-0.7,0.3-0.9l1.4,0l0-0.8c0-1,0.2-1.8,0.6-2.5c0.4-0.7,0.9-1.2,1.6-1.6
		c0.7-0.4,1.4-0.5,2.1-0.5C215.2,66.4,215.5,66.4,215.8,66.5z"/>
	<path class="st2" d="M218.5,80.7c-0.7-0.4-1.2-1-1.6-1.7s-0.6-1.6-0.6-2.6c0-0.9,0.2-1.8,0.6-2.5c0.4-0.7,1-1.3,1.7-1.8
		c0.7-0.4,1.5-0.6,2.4-0.6c1.4,0,2.6,0.5,3.4,1.3c0.8,0.9,1.2,2.1,1.2,3.6c0,0.9-0.2,1.8-0.6,2.5s-0.9,1.3-1.7,1.7
		c-0.7,0.4-1.5,0.6-2.4,0.6C220,81.3,219.2,81.1,218.5,80.7z M222.9,79.3c0.4-0.7,0.6-1.6,0.6-2.7c0-0.8-0.1-1.6-0.4-2.2
		c-0.3-0.6-0.6-1.1-1-1.5c-0.4-0.3-0.9-0.5-1.4-0.5c-0.8,0-1.4,0.3-1.8,0.9c-0.4,0.6-0.6,1.5-0.6,2.5c0,1.4,0.2,2.4,0.7,3.2
		c0.5,0.8,1.2,1.1,2,1.1C221.9,80.3,222.5,80,222.9,79.3z"/>
	<path class="st2" d="M234.6,72.2c-0.1,0.6-0.1,1.4-0.1,2.4c-0.4,0.1-0.8,0.2-1.2,0.2c0-0.6-0.1-1-0.3-1.3c-0.2-0.2-0.4-0.3-0.7-0.3
		c-0.2,0-0.5,0.1-0.8,0.4c-0.3,0.3-0.5,0.6-0.7,1.1c-0.2,0.5-0.3,0.9-0.3,1.4l0,2c0,0.6,0.1,1,0.2,1.3c0.1,0.3,0.3,0.5,0.6,0.6
		c0.3,0.1,0.6,0.2,1.1,0.2c0.1,0.2,0.1,0.5,0.1,0.9c-0.6,0-1.5-0.1-2.6-0.1c-1.3,0-2.2,0-2.7,0.1c0-0.4,0-0.7,0.1-0.9
		c0.5,0,0.9-0.2,1.1-0.4c0.2-0.2,0.3-0.7,0.3-1.4l0-4.1c0-0.4,0-0.6-0.1-0.8c-0.1-0.2-0.2-0.4-0.4-0.5s-0.5-0.2-1-0.2
		c0-0.3,0.1-0.6,0.2-0.8c0.4,0,0.9-0.1,1.5-0.2c0.5-0.1,1-0.3,1.3-0.5c0.3,0.1,0.5,0.4,0.5,0.9c0,0.5,0,0.9-0.1,1.3
		c-0.1,0.4-0.1,0.6-0.1,0.7c0-0.1,0.1-0.2,0.2-0.5s0.2-0.4,0.3-0.6c0.7-1.1,1.5-1.7,2.5-1.7C233.7,71.7,234.2,71.9,234.6,72.2z"/>
	<path class="st2" d="M250.7,81.2c-0.6,0-1.3-0.1-2.2-0.1c-0.6,0-1.2,0-2,0c-0.1,0-0.2,0-0.4,0c0-0.4,0-0.7,0.1-0.9
		c0.5,0,0.9-0.1,1.1-0.4c0.2-0.3,0.3-0.7,0.3-1.4l0-3.1c0-0.9-0.2-1.6-0.5-1.9c-0.3-0.4-0.8-0.6-1.4-0.6c-0.4,0-0.8,0.1-1.1,0.3
		c-0.4,0.2-0.7,0.6-0.9,1.1c-0.2,0.5-0.3,1.2-0.3,2l0,2.2c0,0.7,0.1,1.2,0.3,1.4c0.2,0.3,0.6,0.4,1.1,0.4c0.1,0.2,0.1,0.5,0.1,0.9
		c-1.2,0-2-0.1-2.5-0.1c-1,0-1.9,0-2.5,0.1c0-0.4,0-0.7,0.1-0.9c0.5,0,0.9-0.1,1.1-0.4c0.2-0.3,0.3-0.7,0.3-1.4l0-4.1
		c0-0.4,0-0.6-0.1-0.8c-0.1-0.2-0.2-0.4-0.4-0.5s-0.5-0.2-1-0.2c0-0.3,0.1-0.6,0.2-0.8c0.4,0,0.9-0.1,1.5-0.2c0.5-0.1,1-0.3,1.3-0.5
		c0.3,0.1,0.5,0.4,0.5,0.9c0,0.4,0,0.8-0.1,1.2c0,0,0.1-0.1,0.1-0.2c0-0.1,0.1-0.2,0.2-0.3c0.3-0.4,0.7-0.7,1.2-1
		c0.5-0.3,1.1-0.5,1.8-0.5c0.9,0,1.6,0.3,2.1,0.8c0.5,0.5,0.8,1.4,0.8,2.6l0,3.5c0,0.7,0.1,1.2,0.3,1.4c0.2,0.3,0.5,0.4,0.9,0.4
		C250.7,80.6,250.7,80.8,250.7,81.2z"/>
	<path class="st2" d="M254.5,80.8c-0.7-0.4-1.2-1-1.6-1.7s-0.6-1.6-0.6-2.6c0-0.9,0.2-1.8,0.6-2.5c0.4-0.7,1-1.3,1.7-1.8
		c0.7-0.4,1.5-0.6,2.4-0.6c1.4,0,2.6,0.5,3.4,1.3c0.8,0.9,1.2,2.1,1.2,3.6c0,0.9-0.2,1.8-0.6,2.5s-0.9,1.3-1.7,1.7
		c-0.7,0.4-1.5,0.6-2.4,0.6C256,81.4,255.2,81.2,254.5,80.8z M258.9,79.4c0.4-0.7,0.6-1.6,0.6-2.7c0-0.8-0.1-1.6-0.4-2.2
		c-0.3-0.6-0.6-1.1-1-1.5c-0.4-0.3-0.9-0.5-1.4-0.5c-0.8,0-1.4,0.3-1.8,0.9c-0.4,0.6-0.6,1.5-0.6,2.5c0,1.4,0.2,2.4,0.7,3.2
		c0.5,0.8,1.2,1.1,2,1.1C257.9,80.4,258.5,80.1,258.9,79.4z"/>
	<path class="st2" d="M272.2,79.5c0.2,0.2,0.5,0.3,1,0.3c0,0.4,0,0.7-0.1,0.9c-0.4,0-0.8,0.1-1.2,0.2c-0.5,0.1-0.8,0.3-1.1,0.4
		c-0.2-0.1-0.3-0.2-0.4-0.3c-0.1-0.1-0.1-0.4-0.1-0.9c0-0.2,0-0.5,0.1-0.7c0-0.2,0.1-0.4,0.1-0.5c-0.1,0.3-0.3,0.5-0.5,0.9
		c-0.2,0.4-0.6,0.7-1.1,1s-1.1,0.5-1.7,0.5c-1.2,0-2.2-0.4-2.9-1.1c-0.7-0.8-1-1.9-1-3.5c0-1,0.2-1.8,0.6-2.6s1-1.4,1.8-1.9
		c0.8-0.5,1.7-0.7,2.7-0.7c0.6,0,1.1,0.1,1.7,0.3l0-2.5c0-0.4,0-0.6-0.1-0.8c-0.1-0.2-0.2-0.4-0.4-0.5c-0.2-0.1-0.6-0.2-1-0.2
		c0-0.3,0.1-0.6,0.2-0.8c0.3,0,0.8-0.1,1.5-0.2c0.6-0.2,1.1-0.3,1.3-0.5c0.3,0.1,0.5,0.4,0.5,0.8l0,11.2
		C271.9,78.9,272,79.3,272.2,79.5z M269.4,79.1c0.5-0.6,0.7-1.6,0.7-3l0-2.9c-0.3-0.2-0.5-0.4-0.8-0.5c-0.3-0.1-0.6-0.2-1-0.2
		c-0.5,0-0.9,0.1-1.4,0.3c-0.5,0.2-0.8,0.6-1.2,1.2s-0.5,1.4-0.5,2.4c0,0.8,0.1,1.5,0.4,2c0.2,0.5,0.5,0.9,0.9,1.2
		c0.3,0.2,0.7,0.4,1,0.4C268.3,80.1,268.9,79.8,269.4,79.1z"/>
	<path class="st2" d="M282.7,79.4c0.1,0.1,0.2,0.2,0.2,0.4c-0.5,0.6-1,1-1.6,1.3c-0.6,0.3-1.3,0.4-2.1,0.4c-0.9,0-1.7-0.2-2.4-0.7
		c-0.7-0.4-1.1-1-1.5-1.8c-0.3-0.7-0.5-1.6-0.5-2.5c0-0.9,0.2-1.7,0.5-2.5c0.4-0.7,0.9-1.3,1.5-1.8c0.6-0.4,1.4-0.7,2.2-0.7
		c1.3,0,2.2,0.4,2.8,1.2c0.6,0.8,1,1.8,1.1,3.1c-0.1,0.3-0.2,0.5-0.3,0.7c-2.4,0-4.3,0-5.8,0.1c0.1,1.1,0.3,1.9,0.8,2.6
		c0.5,0.7,1.2,1,2.2,1c0.5,0,0.9-0.1,1.4-0.3c0.4-0.2,0.8-0.5,1.2-0.9C282.5,79.1,282.6,79.2,282.7,79.4z M277.6,73.3
		c-0.4,0.5-0.6,1.3-0.7,2.3l4,0c0-0.9-0.2-1.7-0.5-2.2c-0.3-0.6-0.8-0.8-1.4-0.8C278.4,72.6,277.9,72.8,277.6,73.3z"/>
</g>
</svg>
